<svg width="16" height="16" viewBox="0 0 16 16" fill="none" xmlns="http://www.w3.org/2000/svg">
<path d="M15 15L10.7959 10.625M12.4286 6.61458C12.4286 7.3519 12.2808 8.082 11.9936 8.76319C11.7064 9.44439 11.2855 10.0633 10.7549 10.5847C10.2243 11.1061 9.59434 11.5196 8.90105 11.8018C8.20776 12.0839 7.4647 12.2292 6.71429 12.2292C5.96388 12.2292 5.22081 12.0839 4.52752 11.8018C3.83423 11.5196 3.2043 11.1061 2.67368 10.5847C2.14306 10.0633 1.72214 9.44439 1.43497 8.76319C1.1478 8.082 1 7.3519 1 6.61458C1 5.1255 1.60204 3.69741 2.67368 2.64447C3.74531 1.59153 5.19876 1 6.71429 1C8.22981 1 9.68326 1.59153 10.7549 2.64447C11.8265 3.69741 12.4286 5.1255 12.4286 6.61458Z" stroke="#050314" stroke-opacity="0.28" stroke-width="1.7" stroke-linecap="round" stroke-linejoin="round"/>
</svg>
